<svg width="102" height="53" viewBox="0 0 102 53" fill="none" xmlns="http://www.w3.org/2000/svg">
<path d="M69.5127 29.4214C68.6538 27.3753 67.3998 25.5412 65.7492 23.9178C64.0986 22.2723 62.2337 21.0275 60.1544 20.1819C58.075 19.3378 55.8572 18.915 53.5023 18.915C51.2131 18.915 49.0229 19.3378 46.9334 20.1819C44.8424 21.0275 42.9935 22.2384 41.3867 23.8176C39.7579 25.4189 38.5083 27.2471 37.6392 29.3036C36.7702 31.3601 36.3357 33.5447 36.3357 35.8576C36.3357 38.1704 36.7644 40.3491 37.6232 42.3939C38.482 44.44 39.736 46.2844 41.3867 47.9299C43.0154 49.5533 44.8745 50.7922 46.9655 51.6481C49.0565 52.504 51.2349 52.9327 53.5023 52.9327C55.8135 52.9327 58.0138 52.504 60.1048 51.6481C62.1957 50.7922 64.1001 49.5297 65.8163 47.8621C67.445 46.2829 68.683 44.471 69.5302 42.4263C70.3774 40.3815 70.8017 38.191 70.8017 35.8561C70.8002 33.6125 70.3715 31.4676 69.5127 29.4214ZM60.4183 43.3794C58.5373 45.4138 56.2524 46.4317 53.5679 46.4317C50.882 46.4317 48.6001 45.4138 46.7176 43.3794C44.8366 41.345 43.8946 38.8598 43.8946 35.9253C43.8946 32.9908 44.8352 30.5057 46.7176 28.4713C48.6001 26.4369 50.882 25.4189 53.5679 25.4189C56.2742 25.4189 58.5635 26.4369 60.4343 28.4713C62.3051 30.5057 63.2398 32.9908 63.2398 35.9253C63.2412 38.8598 62.3007 41.345 60.4183 43.3794Z" fill="#00AFEF"/>
<path d="M102 18.9283H72.5442V25.7578H89.4425L70.6588 53.0019H102V46.1724H83.607L102 18.9283Z" fill="#00AFEF"/>
<path d="M10.0119 20.2173C8.92993 20.6474 7.89611 21.1984 6.92791 21.8495V0H0.00466655V33.6906C0.000292135 34.0898 0.00175027 34.4934 0.00466655 34.8985V36.9241C-0.0128311 38.8539 -0.0186636 40.6511 0.71478 42.3983C2.40476 46.47 5.93929 49.9938 10.0439 51.6392C21.0077 56.2192 33.9953 48.1302 33.8437 35.8708C33.7795 23.5746 21.1287 15.7095 10.0119 20.2173ZM9.79752 43.3794C6.03844 39.5286 6.03844 32.3427 9.79752 28.4934C16.1871 21.7538 26.4218 26.8891 26.2964 35.9371C26.4232 44.9556 16.1638 50.1249 9.79752 43.3794Z" fill="#00AFEF"/>
</svg>
